<svg width="960" height="760" viewBox="0 0 960 760" fill="none" xmlns="http://www.w3.org/2000/svg">
  <rect width="960" height="760" rx="48" fill="#091423"/>
  <rect x="54" y="58" width="852" height="644" rx="36" fill="url(#a)"/>
  <rect x="92" y="100" width="320" height="180" rx="28" fill="#0F2238"/>
  <rect x="122" y="132" width="124" height="18" rx="9" fill="#52D6FF"/>
  <rect x="122" y="168" width="218" height="14" rx="7" fill="#6A7E9B"/>
  <rect x="122" y="196" width="180" height="14" rx="7" fill="#40526B"/>
  <rect x="448" y="100" width="420" height="260" rx="28" fill="#122840"/>
  <rect x="480" y="136" width="160" height="18" rx="9" fill="#FF7AA2"/>
  <rect x="480" y="176" width="318" height="16" rx="8" fill="#6A7E9B"/>
  <rect x="480" y="224" width="336" height="84" rx="22" fill="#173454"/>
  <rect x="92" y="318" width="776" height="332" rx="28" fill="#102335"/>
  <rect x="124" y="354" width="286" height="240" rx="24" fill="#15304A"/>
  <circle cx="267" cy="474" r="82" fill="#193C5A"/>
  <path d="M267 414C300.137 414 327 440.863 327 474C327 507.137 300.137 534 267 534C233.863 534 207 507.137 207 474C207 440.863 233.863 414 267 414Z" stroke="#52D6FF" stroke-width="22"/>
  <path d="M267 392C312.288 392 349 428.712 349 474" stroke="#FF7AA2" stroke-width="22" stroke-linecap="round"/>
  <rect x="442" y="354" width="394" height="48" rx="16" fill="#173454"/>
  <rect x="442" y="424" width="394" height="48" rx="16" fill="#173454"/>
  <rect x="442" y="494" width="394" height="48" rx="16" fill="#173454"/>
  <rect x="442" y="564" width="238" height="18" rx="9" fill="#52D6FF"/>
  <defs>
    <linearGradient id="a" x1="54" y1="58" x2="906" y2="702" gradientUnits="userSpaceOnUse">
      <stop stop-color="#0D1C30"/>
      <stop offset="1" stop-color="#08101C"/>
    </linearGradient>
  </defs>
</svg>
